<?xml version="1.0" encoding="UTF-8"?><!DOCTYPE svg PUBLIC "-//W3C//DTD SVG 1.1//EN" "http://www.w3.org/Graphics/SVG/1.1/DTD/svg11.dtd"><svg xmlns="http://www.w3.org/2000/svg" xmlns:xlink="http://www.w3.org/1999/xlink" version="1.1" width="32" height="32" viewBox="0 0 32 32"><path fill="#444" d="M16.017 21.044zM4.743 3.519L6.792 26.5l9.194 2.552 9.22-2.556 2.051-22.977H4.743zM23 8.775l-.693 7.767-.48 5.359-.042.476-5.781 1.603-5.773-1.603-.395-4.426h2.829l.201 2.248 3.142.847.008-.002h.002l3.134-.846.329-3.655h-6.579l-.056-.633-.129-1.429-.067-.756h7.081l.258-2.886H9.203l-.056-.634-.129-1.429-.067-.756h14.118l-.068.756z"/><metadata><rdf:RDF xmlns:rdf="http://www.w3.org/1999/02/22-rdf-syntax-ns#" xmlns:rdfs="http://www.w3.org/2000/01/rdf-schema#" xmlns:dc="http://purl.org/dc/elements/1.1/"><rdf:Description about="https://iconscout.com/legal#licenses" dc:title="css" dc:description="css" dc:publisher="Iconscout" dc:date="2017-09-24" dc:format="image/svg+xml" dc:language="en"><dc:creator><rdf:Bag><rdf:li>Vorillaz</rdf:li></rdf:Bag></dc:creator></rdf:Description></rdf:RDF></metadata></svg>